<mxfile host="app.diagrams.net" modified="2024-05-03T12:55:00.527Z" agent="Mozilla/5.0 (Macintosh; Intel Mac OS X 10_15_7) AppleWebKit/537.36 (KHTML, like Gecko) Chrome/124.0.0.0 Safari/537.36" version="24.3.1" etag="LuAcKFADxm8jWZdHvY4x" type="github">
  <diagram name="第 1 页" id="wHRoAflsBM4HJ_U4d_QA">
    <mxGraphModel>
      <root>
        <mxCell id="0" />
        <mxCell id="1" parent="0" />
      </root>
    </mxGraphModel>
  </diagram>
</mxfile>
